<svg width="20" height="20" viewBox="0 0 20 20" xmlns="http://www.w3.org/2000/svg"><g fill-rule="evenodd"><path d="M3.577.228c-.343.109-.573.377-.653.763-.07.33.093.748.487 1.26.734.95.883 1.184.975 1.524.073.271.101.362.18.579.043.116.102.281.13.368.26.764.638 1.492.944 1.81.146.152.181.24.13.32-.045.07-.112.278-.151.471a8.532 8.532 0 0 1-.106.43c-.07.257-.106.423-.156.73a8.173 8.173 0 0 0-.038 1.124c.09.794.18 1.168.397 1.617.332.691.707 1.045 1.102 1.041.423-.003.625-.241.705-.83.073-.542.147-.93.18-.94.011-.003.136.223.277.504.405.803.764 1.228 1.64 1.937.138.11.32.274.406.362.154.16.336.308.408.334.062.021.017-.033-.122-.148-.74-.613-2.251-3.092-2.524-4.14-.073-.282-.083-.28-.339.04-.308.386-.421.65-.512 1.189-.04.236-.056.357-.11.827-.032.272-.051.294-.192.223-.438-.219-.785-1.197-.83-2.334a4.34 4.34 0 0 1 .289-1.78c.295-.798.29-.958-.043-1.303-.395-.41-.614-.85-.948-1.905-.344-1.09-.478-1.346-1.136-2.176-.481-.607-.611-.92-.485-1.168.142-.278.495-.228 1.39.194.303.143.652.359.815.503.233.208.27.234.52.25.117.01.245.021.286.027.04.007.225.022.41.035.354.026.528.061.801.167.091.035.174.064.183.064.009 0 .165.071.347.158 1.993.955 3.941 3.007 4.665 4.914.142.376.247.611.517 1.17a20.778 20.778 0 0 1 .303.644c.05.108.133.29.183.406.265.609.646 1.292.784 1.405.09.074.317.168.725.301.396.13.738.253.881.317.037.016.077.029.089.029.067 0 .406.217 1.206.772.147.102.364.247.482.322.571.364.588.47.077.477-.748.011-1.363.11-1.751.282-.024.01-.123.044-.221.075-.349.11-.369.146-.234.432.313.668 1.052 1.289 2.075 1.744.58.258 1.24.686 1.677 1.088.188.172.2.16.08-.083a1.28 1.28 0 0 0-.28-.374 6.529 6.529 0 0 1-.3-.326 4.712 4.712 0 0 0-.577-.587c-.368-.314-.456-.378-.915-.654-.512-.31-.751-.506-.85-.7l-.043-.084.12-.027c.125-.028.41-.1.673-.17.084-.023.24-.05.347-.063.603-.068.617-.07 1.078-.2l.19-.049c.102-.023.096-.105-.016-.24-.051-.06-.151-.187-.222-.281-.131-.174-.381-.404-.773-.712l-.362-.286c-.48-.383-1.429-.987-1.548-.987-.007 0-.082-.032-.166-.07-.085-.04-.244-.112-.354-.16l-.29-.13a.513.513 0 0 0-.112-.04c-.128 0-.305-.219-.482-.597-.056-.12-.21-.436-.342-.7a38.346 38.346 0 0 1-.727-1.545c-.034-.076-.112-.26-.173-.41l-.194-.484c-.16-.396-.322-.684-.7-1.242a11.235 11.235 0 0 0-3.262-3.191c-.938-.608-1.179-.721-1.884-.881a5.646 5.646 0 0 1-.195-.05 1.643 1.643 0 0 0-.263-.044c-.945-.068-.835-.041-1.11-.271C5.58.71 4.885.377 4.214.22c-.133-.031-.53-.026-.637.007m2.831 2.856a.432.432 0 0 0-.081.03c-.014.013.06.116.212.294.106.126.18.244.281.45l.137.281.064-.06a.549.549 0 0 0 .125-.636c-.166-.319-.429-.447-.738-.359M.474 15.925c-.207.04-.363.12-.423.217L0 16.224v2.778l.32.005.322.006v-1.3c.002-1.29.002-1.3.042-1.224.022.041.122.26.222.484a536.824 536.824 0 0 0 .63 1.408c.263.589.346.663.737.662.324-.002.478-.092.593-.347l.116-.252c.035-.075.09-.199.123-.274.032-.075.15-.34.262-.589l.34-.755a8.96 8.96 0 0 1 .16-.347c.021-.036.029.215.037 1.239l.01 1.284h.632l.005-1.345c.007-1.608.011-1.58-.28-1.68-.523-.18-.853-.05-1.059.417-.127.29-.301.678-.538 1.202-.11.246-.201.451-.201.456 0 .066-.217.459-.236.426a69.74 69.74 0 0 1-.662-1.528 17.462 17.462 0 0 0-.335-.75c-.137-.238-.424-.34-.766-.275m4.646.988c-.032.098-.004 1.567.032 1.632.194.356.46.43 1.588.441l.847.008v.14c0 .181-.029.234-.158.299l-.105.053-1.1.006-1.1.006v.419H6.28c1.387 0 1.537-.024 1.796-.284.162-.163.153-.083.16-1.49l.005-1.258-.321.006-.322.006-.005.848-.006.848-.804-.006c-1.124-.009-1.013.093-1.022-.938l-.006-.763h-.312c-.232 0-.315.007-.322.027" fill="#08648b"/><path d="M9.512 15.982c-.246.033-.518.16-.613.288-.216.294-.187.951.052 1.139.257.202.413.237 1.15.256.884.023.916.039.916.454 0 .454.046.438-1.241.451l-1 .01v.421h1.052c1.248 0 1.385-.021 1.663-.265.244-.215.294-.884.083-1.13-.214-.25-.484-.319-1.302-.331-.834-.013-.844-.018-.844-.461 0-.424-.078-.398 1.232-.412l1.041-.01v-.421l-1.03-.003a24.102 24.102 0 0 0-1.16.014m3.632-.001c-.5.022-.775.126-.925.352-.106.16-.108.189-.102 1.2l.006.942.052.102c.192.375.83.515 1.95.427l.233-.018.255.234.255.235.293.007c.16.004.329.002.373-.006l.082-.013-.3-.272a2.88 2.88 0 0 1-.294-.288.608.608 0 0 1 .11-.085c.243-.163.246-.176.238-1.349l-.006-.973-.057-.098c-.212-.36-.752-.459-2.163-.397m2.666-.006c-.025.024-.016 2.288.009 2.41.062.299.281.48.703.577.152.036.267.04 1.178.04h1.01v-.421l-1-.01c-1.07-.012-1.088-.014-1.185-.123-.063-.07-.074-.276-.065-1.235.004-.498.002-.983-.005-1.079l-.013-.174h-.309c-.17 0-.316.007-.323.015m-1.228.488c.19.093.184.057.178 1.048l-.006.867-.062.064c-.086.09-.086.09-.341-.145l-.228-.21h-.363c-.2 0-.363.007-.363.017 0 .016.177.182.406.382.117.102.08.112-.346.094-.646-.028-.616.023-.624-1.074-.008-1.177-.078-1.103 1.027-1.097.608.004.622.005.722.054m4.853 1.621c-.444.09-.541.68-.148.893a.48.48 0 1 0 .148-.893m.25.126c.41.21.173.837-.27.718-.323-.087-.365-.558-.063-.71a.355.355 0 0 1 .333-.008m-.354.34c0 .259.003.273.042.273.037 0 .043-.014.043-.106 0-.178.084-.16.193.04.022.04.053.066.08.066.055 0 .053-.016-.01-.11-.066-.096-.066-.109-.002-.15.178-.117.045-.288-.222-.288h-.124v.274m.294-.159c.063.075-.037.16-.154.13-.054-.013-.08-.107-.041-.146.026-.027.17-.014.195.016" fill="#e28d09"/></g></svg>
